<svg width="934" height="449" viewBox="0 0 934 449" fill="none" xmlns="http://www.w3.org/2000/svg">
<g clip-path="url(#clip0_1_150)">
<path fill-rule="evenodd" clip-rule="evenodd" d="M182.05 324.2L216.1 323.7H218.35C223.317 323.633 228.4 323.617 233.6 323.65C259.633 322.65 288.917 321.883 321.45 321.35L344.8 321.7L363 321.4L523.55 323.8L530.75 323.6C543.25 323.567 549.75 323.633 550.25 323.8L583.85 322.95H640.55L685.95 323.1L722.25 323.3C741.55 323.433 759.65 323.617 776.55 323.85L794.95 323.65C814.217 323.45 831.433 323.367 846.6 323.4C873.567 323.467 893.967 323.883 907.8 324.65L906.6 324.35L905.6 324.4C891.133 323.6 871.65 323.067 847.15 322.8C827.017 322.633 803.483 322.667 776.55 322.9C759.783 322.6 741.683 322.35 722.25 322.15L690.3 321.9L640.55 321.65L577.15 321.55L543.75 322.55H523.55L369.1 320.25L362.3 320.45L321.45 320.25C288.683 320.95 259.4 321.833 233.6 322.9L217.65 322.95H216.45L184.95 323.45L191.25 321.9L144.5 322.65L134.4 322.85L123.4 322.9L123.15 321.65L136.85 321.2L143.5 320.85L198.25 318.45L211.85 318.2L213.85 318H232.2L232.55 318.05H233.6L234.95 318H822.95L850.85 318.7L867.25 319.2L866.3 319.75L870.3 319.15L881 320L880.3 319.8L901.65 320.95L906.55 320.75V321.1L910.15 320.9L911.25 323.1C914.45 328.667 918.417 332.183 923.15 333.65L923.5 334.15L925.7 337.35L933.9 346.2C930.4 352.7 926.317 360.767 921.65 370.4L909.2 396.05C903.767 407.083 898.267 419.033 892.7 431.9L776.55 434.85H892.7L891.4 437.8L523.55 448.55L169.7 443.25L169.45 443.1L167.9 442.1C164.133 435.4 160.05 426.983 155.65 416.85H233.6L155.65 414L151.8 404.7C147.1 393.233 143.233 381.783 140.2 370.35L139.6 367.9L178.85 366.1C195.017 365.6 213.267 365.317 233.6 365.25L290.55 363.4L329.55 362.6L352.95 362.95L371.1 362.75L523.55 365L538.85 364.55C551.383 364.517 557.883 364.567 558.35 364.7L591.95 363.9H640.55L686.65 364L722.25 364.15L776.55 364.65L803.05 364.4C846.15 363.967 878.883 364.1 901.25 364.8L915.9 365.35C915.8 365.217 915.4 365.133 914.7 365.1H913.7L901.3 364.5C873.233 363.4 831.65 363.133 776.55 363.7L722.25 363L695.8 362.85L640.55 362.55L585.25 362.45L523.55 364.1L377.25 361.5L370.4 361.7L329.55 361.55L287.6 362.65L233.6 364.5C212.667 364.6 194.167 364.9 178.1 365.4L139.45 367.3C137.617 360 136.583 354.5 136.35 350.8V350.1L138.1 350.05L145.3 349.65L179.6 348.1C195.567 347.6 213.567 347.317 233.6 347.25L248.3 346.7C272.833 345.8 300.167 345.083 330.3 344.55L353.65 344.9L371.8 344.7L523.55 346.95L539.6 346.5C552.1 346.467 558.583 346.517 559.05 346.65L592.65 345.85H604.35L640.55 345.8C669.783 345.8 697.017 345.883 722.25 346.05L776.55 346.55L801 346.3L803.75 346.25C854.683 345.783 891.15 346.067 913.15 347.1L916.6 347.25L915.4 347H914.4L913.25 346.95C889.65 345.65 853.117 345.15 803.65 345.45L776.55 345.65L722.25 344.95C697.15 344.717 669.917 344.567 640.55 344.5L609.45 344.4H585.95L552.55 345.35L523.55 345.65L377.95 343.5L371.1 343.7L330.3 343.5C299.433 344.2 271.683 345 247.05 345.9L233.6 346.45C212.933 346.583 194.667 346.9 178.8 347.4L149.65 348.75L136.3 349.55V349.2C136.367 346.1 139.683 342.55 146.25 338.55C148.517 337.183 151.05 335.85 153.85 334.55L170.75 333.9C181.383 333.567 192.933 333.317 205.4 333.15C212.767 333.05 220.45 333 228.45 333H233.6C259.6 332.033 288.883 331.283 321.45 330.75L344.8 331.1L363 330.8L523.55 333.2L530.75 333C543.25 332.967 549.75 333.017 550.25 333.15L583.85 332.35H640.55L652.65 332.4L722.25 332.7C741.55 332.833 759.65 333.017 776.55 333.25L794.95 333.05L833.85 332.8C867.25 332.767 891.9 333.183 907.8 334.05L906.6 333.75L905.6 333.8C888.833 332.833 865.3 332.283 835 332.15C817.7 332.05 798.217 332.083 776.55 332.25L722.25 331.55C701.983 331.35 680.3 331.2 657.2 331.1L640.55 331.05L577.15 330.95L543.75 331.95H523.55L369.1 329.65L362.3 329.85L321.45 329.65C288.683 330.35 259.4 331.217 233.6 332.25H227.55C220.35 332.25 213.45 332.3 206.85 332.4C193.383 332.567 181.1 332.833 170 333.2L155.45 333.8C159.883 331.733 164.917 329.733 170.55 327.8C174.383 326.467 178.217 325.267 182.05 324.2Z" fill="#775D2B"/>
<path fill-rule="evenodd" clip-rule="evenodd" d="M184.95 323.45L216.45 322.95H217.65L233.6 322.9C259.4 321.833 288.683 320.95 321.45 320.25L362.3 320.45L369.1 320.25L523.55 322.55H543.75L577.15 321.55L640.55 321.65L690.3 321.9L722.25 322.15C741.683 322.35 759.783 322.6 776.55 322.9C803.483 322.667 827.017 322.633 847.15 322.8C871.65 323.067 891.133 323.6 905.6 324.4L906.6 324.35L907.8 324.65C893.967 323.883 873.567 323.467 846.6 323.4C831.433 323.367 814.217 323.45 794.95 323.65L776.55 323.85C759.65 323.617 741.55 323.433 722.25 323.3L685.95 323.1L640.55 322.95H583.85L550.25 323.8C549.75 323.633 543.25 323.567 530.75 323.6L523.55 323.8L363 321.4L344.8 321.7L321.45 321.35C288.917 321.883 259.633 322.65 233.6 323.65C228.4 323.617 223.317 323.633 218.35 323.7H216.1L182.05 324.2L170.75 324.55L129.35 326.45H129.3L124 326.85L123.95 326.3L130.15 325.85L170 323.85L184.95 323.45ZM155.45 333.8L170 333.2C181.1 332.833 193.383 332.567 206.85 332.4C213.45 332.3 220.35 332.25 227.55 332.25H233.6C259.4 331.217 288.683 330.35 321.45 329.65L362.3 329.85L369.1 329.65L523.55 331.95H543.75L577.15 330.95L640.55 331.05L657.2 331.1C680.3 331.2 701.983 331.35 722.25 331.55L776.55 332.25C798.217 332.083 817.7 332.05 835 332.15C865.3 332.283 888.833 332.833 905.6 333.8L906.6 333.75L907.8 334.05C891.9 333.183 867.25 332.767 833.85 332.8L794.95 333.05L776.55 333.25C759.65 333.017 741.55 332.833 722.25 332.7L652.65 332.4L640.55 332.35H583.85L550.25 333.15C549.75 333.017 543.25 332.967 530.75 333L523.55 333.2L363 330.8L344.8 331.1L321.45 330.75C288.883 331.283 259.6 332.033 233.6 333H228.45C220.45 333 212.767 333.05 205.4 333.15C192.933 333.317 181.383 333.567 170.75 333.9L153.85 334.55L129.3 335.8L125.3 336.1L125.2 335.55L155.45 333.8ZM136.3 349.55L149.65 348.75L178.8 347.4C194.667 346.9 212.933 346.583 233.6 346.45L247.05 345.9C271.683 345 299.433 344.2 330.3 343.5L371.1 343.7L377.95 343.5L523.55 345.65L552.55 345.35L585.95 344.4H609.45L640.55 344.5C669.917 344.567 697.15 344.717 722.25 344.95L776.55 345.65L803.65 345.45C853.117 345.15 889.65 345.65 913.25 346.95L914.4 347H915.4L916.6 347.25L913.15 347.1C891.15 346.067 854.683 345.783 803.75 346.25L801 346.3L776.55 346.55L722.25 346.05C697.017 345.883 669.783 345.8 640.55 345.8L604.35 345.85H592.65L559.05 346.65C558.583 346.517 552.1 346.467 539.6 346.5L523.55 346.95L371.8 344.7L353.65 344.9L330.3 344.55C300.167 345.083 272.833 345.8 248.3 346.7L233.6 347.25C213.567 347.317 195.567 347.6 179.6 348.1L145.3 349.65L138.1 350.05L136.35 350.1L131.2 350.5H130.4L130.2 350L136.3 349.55ZM139.45 367.3L178.1 365.4C194.167 364.9 212.667 364.6 233.6 364.5L287.6 362.65L329.55 361.55L370.4 361.7L377.25 361.5L523.55 364.1L585.25 362.45L640.55 362.55L695.8 362.85L722.25 363L776.55 363.7C831.65 363.133 873.233 363.4 901.3 364.5L913.7 365.1H914.7C915.4 365.133 915.8 365.217 915.9 365.35L901.25 364.8C878.883 364.1 846.15 363.967 803.05 364.4L776.55 364.65L722.25 364.15L686.65 364L640.55 363.9H591.95L558.35 364.7C557.883 364.567 551.383 364.517 538.85 364.55L523.55 365L371.1 362.75L352.95 362.95L329.55 362.6L290.55 363.4L233.6 365.25C213.267 365.317 195.017 365.6 178.85 366.1L139.6 367.9L137.5 368.05L137.3 367.5L139.45 367.3Z" fill="#362612"/>
<path fill-rule="evenodd" clip-rule="evenodd" d="M182.05 324.2C178.217 325.267 174.383 326.467 170.55 327.8C164.917 329.733 159.883 331.733 155.45 333.8L125.2 335.55L124.5 330.45C125.733 329.35 127.083 328.233 128.55 327.1L129.35 326.45L170.75 324.55L182.05 324.2ZM153.85 334.55C151.05 335.85 148.517 337.183 146.25 338.55C139.683 342.55 136.367 346.1 136.3 349.2V349.55L130.2 350L127.6 343.55L128.25 342L129.85 339.65V339.15L127.15 342.45C126.083 339.617 125.517 337.933 125.45 337.4L125.3 336.1L129.3 335.8L153.85 334.55ZM136.35 350.1V350.8H133.6L131.2 350.5L136.35 350.1ZM134.4 322.85L144.5 322.65L191.25 321.9L184.95 323.45L170 323.85L130.15 325.85C131.55 324.75 132.967 323.75 134.4 322.85ZM141.35 330.75L141.1 331C141.5 331 142.667 330.483 144.6 329.45L148.35 327.1C147.283 327.467 145.867 328.15 144.1 329.15C142.7 329.883 141.783 330.417 141.35 330.75Z" fill="#55420F"/>
<path fill-rule="evenodd" clip-rule="evenodd" d="M147.6 3.65C150.167 4.25 151.483 5.13334 151.55 6.3C151.117 7.76667 150.967 8.9 151.1 9.7C151.233 10.5 152.1 11.55 153.7 12.85L154.15 13.2L147.15 12.1L146.15 11.95L146.75 9.60001L147.6 3.65ZM163.75 31.25L163 30.25C161.133 27.9833 159 25.9667 156.6 24.2L156.55 24.1C149.05 18.6 139.667 15.85 128.4 15.85L126.55 15.9L139.35 15.05L143.05 15.15L143.3 15.3L143.55 15.15C152.417 15.5833 160.267 17.3667 167.1 20.5L167.2 20.7L167.9 20.85C169.9 21.8167 171.817 22.9 173.65 24.1L177.15 26.6L182.9 33.1L182.7 32.95C185.5 36.05 187.767 38.9 189.5 41.5L191.05 44.1H191.15C192.283 46.1 193.017 47.9167 193.35 49.55L193.75 50.05C194.783 52.7167 195.567 55.3 196.1 57.8C196.867 61.5 197.25 65.7167 197.25 70.45C197.25 74.9167 196.233 79.8833 194.2 85.35C192.033 91.1833 188.933 96.9167 184.9 102.55C176.967 113.517 166.967 122.333 154.9 129C152.3 130.433 149.6 131.767 146.8 133C146.067 133.333 144.733 134.417 142.8 136.25L140.8 138.3L137.45 141.9L131.3 148.85C135 145.25 139.067 141.733 143.5 138.3L144.75 137.35L146.2 136.25L156.7 129L160.7 126.35C167.433 121.917 172.3 118.567 175.3 116.3C180.233 112.5 184.2 108.733 187.2 105C194.633 95.9 198.35 84.3667 198.35 70.4C198.35 66.4333 197.717 61.7333 196.45 56.3L195.65 53C201.983 63.0667 206.233 74.5167 208.4 87.35C209.467 93.5167 210.1 100.483 210.3 108.25L210.35 112.5C208.783 118.367 206.5 123.867 203.5 129L201.2 132.7L198.55 136.25L196.9 138.3C193.667 142.167 189.917 145.8 185.65 149.2C179.417 154.2 172.1 158.717 163.7 162.75L158.8 165.05L153.75 167.4L152.3 168.1L140 174L139.75 174.15C130.75 178.517 123.4 182.5 117.7 186.1C113.433 188.8 109.667 191.533 106.4 194.3L103.5 196.85L101.6 200.35V200.45L98.1 204.25L99.5 201.7L103.1 194.3C104.5 191.267 105.7 188.367 106.7 185.6L109.2 182.4L110.75 177.8L115.6 169.45L116.45 168.1L116.9 167.4L118.5 165.05C122.267 159.45 126.05 154.9 129.85 151.4V151.2C125.183 154.133 120.533 158.683 115.9 164.85L115.75 165.05L114.2 167.25L114.1 167.4L113.35 168.45L113.65 167.4L114.2 165.05L115.1 160.6V160.45V160.35L115.9 155.8C116.833 149.967 117.417 144.133 117.65 138.3L117.7 136.25V132.9C117.7 132.3 118.917 131.367 121.35 130.1L123.5 129L129.4 125.75C132.767 123.55 135.417 121.267 137.35 118.9C145.683 112.333 152.967 103.333 159.2 91.9C162.8 85.3667 165.6 78.7167 167.6 71.95C169.5 65.25 170.45 59.1833 170.45 53.75L170.3 45.2L169.65 42.15C169.083 40.2833 168.267 38.1333 167.2 35.7L167.1 36.55L167.15 35.95L166.35 34.6C165.55 33.3667 164.683 32.25 163.75 31.25ZM176.75 22L174.3 20.7L173.05 20.05C174.05 19.4167 175.083 18.4667 176.15 17.2C178.283 14.6333 179.517 13.35 179.85 13.35C180.283 13.35 180.933 13.5667 181.8 14L183.6 15L181.95 17.7C179.55 19.1 177.817 20.5333 176.75 22ZM197.85 46.7L194.9 42.15L194.75 41.95L195.85 42.05C198.75 42.05 200.6 41.5167 201.4 40.45C201.8 39.8833 202 39.0833 202 38.05C203.767 38.8833 205.017 40.1667 205.75 41.9C202.883 43.2667 200.15 44.7 197.55 46.2L197.85 46.7ZM189.5 65H187.5C185.533 67.6333 184.55 69.2833 184.55 69.95C184.55 70.85 184.7 71.3167 185 71.35L186.6 71.4C188.033 71.2 188.917 70.5 189.25 69.3L189.75 66.25L189.5 65ZM208.7 70.85L207.15 66.15C208.55 66.5167 210.05 66.1667 211.65 65.1H215.05L215.4 67.2C213.067 68.3333 210.833 69.55 208.7 70.85ZM180.15 87.05C179.35 87.7833 178.917 88.5667 178.85 89.4L181.1 89.5C181.7 89.3333 182.783 88.25 184.35 86.25L184.1 85.25C182.433 85.55 181.117 86.15 180.15 87.05ZM213.8 102.25L213.6 98.25C215 98.9833 216.833 99.2333 219.1 99L219.2 100.15C216.967 100.883 215.167 101.583 213.8 102.25ZM196.85 119.8C195.317 119.533 193.433 119.933 191.2 121C189.133 121.967 187.75 122.95 187.05 123.95L188 124.2L188.15 124.4L191.1 124.6C191.867 124.6 192.883 124.033 194.15 122.9L196.85 119.8ZM187.15 188.65L182.55 192.15L179.45 194.3C167.683 202.267 154.45 208.317 139.75 212.45L136.8 213.25C129.4 215.15 122.033 218.05 114.7 221.95L114.6 222C110.967 223.9 107.483 225.967 104.15 228.2L104 228.05L102.65 228.95C99.45 231.117 96.3833 233.317 93.45 235.55C85.3833 241.617 78.45 247.917 72.65 254.45L71.85 255.35L81.75 235.55L85.05 228.95L86.55 225.95L88.5 221.95L89.8 219.1L95.55 208.85L101.05 202.05L100.7 203.15L101.4 201.6L101.8 201.1C104.133 198.8 106.817 196.533 109.85 194.3L119.1 188.1C124.2 184.967 131.083 181.25 139.75 176.95L140.7 176.45L157.4 168.1L158.8 167.4L163.05 165.25L163.45 165.05C172.35 160.317 180.15 155.033 186.85 149.2C190.817 145.767 194.383 142.133 197.55 138.3L199.2 136.25L199.3 136.15L204.35 129C206.917 124.9 208.917 120.767 210.35 116.6V122.8C209.35 124.2 208.717 126.267 208.45 129L208.4 129.55C208.3 131.15 208.283 133.267 208.35 135.9V136.25L208.45 138.3L208.55 141.5L208.35 142.85C207.85 143.45 207.6 144.333 207.6 145.5L207.7 146.5L207.45 147.8V147.9L204.15 158.7C203.183 161.7 202.083 164.6 200.85 167.4C197.35 175.233 192.783 182.317 187.15 188.65ZM83.85 23.15C84.35 22.5833 84.8833 22.2 85.45 22L87.65 24.65C89.2833 26.1833 90.9667 26.95 92.7 26.95H92.75L89.15 30.3L85.75 25.3L83.85 23.15ZM114.85 14.9V14.45C114.85 13.4833 114.633 12.3667 114.2 11.1C113.7 9.50001 113.033 8.48334 112.2 8.05L116.45 5.95C118.283 9.28334 119.9 11.6833 121.3 13.15L115.9 14.55L114.85 14.9ZM76.1 55.45L68.4 55.1L68.75 54.1C71.8167 53.9667 74.4667 53.4667 76.7 52.6L76.1 55.45ZM79.85 85.45C77.85 86.0833 76.05 86.8333 74.45 87.7L73.95 86.5C76.25 85.7 77.9333 84.7333 79 83.6L79.85 85.45ZM151.65 238.15C151.117 238.383 150.6 238.633 150.1 238.9L145.8 241.05L120.05 253.4C106.983 259.567 96.8167 264.617 89.55 268.55C84.05 271.55 78.9833 274.717 74.35 278.05L69.3 281.9C68.7333 282.067 68.3167 282.25 68.05 282.45L67.85 283.1C62.4167 287.7 57.7167 292.583 53.75 297.75L52 300.15C50.8333 301.817 49.6833 303.617 48.55 305.55L50.9 300.15L55.9 288.65L60.65 278.05L67.1 264.85C69.5667 261.283 72.2667 257.75 75.2 254.25C81.0667 247.25 87.4667 241.017 94.4 235.55L95.75 234.5L100.75 230.75L103.6 228.95C107.933 226.383 112.85 224.05 118.35 221.95C122.083 220.517 126.1 219.2 130.4 218L139.75 215.1C144.917 213.367 149.883 211.45 154.65 209.35L154.25 209.55L143.4 227.55C147.467 223.55 151.133 218.6 154.4 212.7L156.55 208.5C165.55 204.4 173.767 199.667 181.2 194.3L181.9 193.8C188.333 189.067 193.55 184.25 197.55 179.35L199.6 176.65C198.367 179.25 197.4 182 196.7 184.9C196.033 187.833 194.067 191.467 190.8 195.8C186.933 200.567 184.233 203.983 182.7 206.05C179.933 209.85 175.167 215.15 168.4 221.95L161.25 228.95L158.4 231.65L151.65 238.15ZM190.45 206.9L190.35 207.25L190 208.2L189.55 208L190.45 206.9ZM102.65 239.8C102.65 240.833 102.8 241.467 103.1 241.7L104.7 242.05C105.433 242.05 106.417 241.433 107.65 240.2C108.917 238.933 109.55 237.9 109.55 237.1C109.55 236.167 109.383 235.65 109.05 235.55L107.5 235.3C104.267 235.833 102.65 237.333 102.65 239.8ZM125.65 233.55C126.55 232.783 126.917 231.833 126.75 230.7L123.85 230.85C122.483 231.217 121.8 231.883 121.8 232.85C121.8 233.817 121.85 234.433 121.95 234.7L122.45 235.3C123.983 234.7 125.05 234.117 125.65 233.55ZM145.75 266.75L144.4 267.05L139.2 267.25L134.75 266.9C131.017 265.833 127.517 265.017 124.25 264.45L120.95 264.75L111.6 265.75L110.9 265.85L108.2 266.2H107.95C99.1167 267.4 92.7667 268.767 88.9 270.3L92.3 268.55C97.4333 265.983 107.917 260.917 123.75 253.35C133.55 248.65 141.6 244.683 147.9 241.45L148.65 241.05L152.95 238.85L153.35 238.6L158.95 235.55L159.65 235.15L159.95 235L160.25 234.8L166.5 231.1L167.8 230.25L169.8 228.95C173.433 226.55 176.6 224.217 179.3 221.95L183.55 218.05L180.65 221.95C178.717 224.217 176.3 226.55 173.4 228.95C170.667 231.183 167.5 233.467 163.9 235.8C158.167 239.533 151.983 242.967 145.35 246.1L141.85 247.7L138.45 251.55C135.283 255.317 133.7 257.533 133.7 258.2C133.7 260.4 136.15 262.65 141.05 264.95L145.75 266.75ZM165.45 261.75C169.717 259.817 173.017 257.733 175.35 255.5C177.417 253.567 179.2 251.067 180.7 248L181.55 246.3C179.983 252.6 175.3 258.4 167.5 263.7C163.867 266.167 160 268.183 155.9 269.75L154.45 270.3C157.617 271.567 160.817 272.283 164.05 272.45L178.15 272.55C182.283 272.65 186.7 271.45 191.4 268.95L191.85 272.15C191.85 273.75 191.15 275.75 189.75 278.15C187.817 281.617 185.2 283.35 181.9 283.35L179.65 283.3C174.683 281.9 169.483 280.133 164.05 278L163.6 277.7L161.65 276.95C160.45 275.983 158.717 274.983 156.45 273.95C152.183 271.983 148.833 270.883 146.4 270.65L147.1 271L143.75 269.8L145.1 269.6L145.8 269.8L145.6 269.55L151.25 268.25L156.35 266.4L157.1 266.1L158.4 265.5L162.8 263.25L165.45 261.75ZM211.15 139.1L211.25 138.3L211.5 136.25L211.8 134.3L212.3 135L214.05 136.25C215.25 136.75 216.7 136.95 218.4 136.85L217.7 138.3L217.25 138.95L216.2 139V138.7L211.3 139.05L211.15 139.1ZM205.15 168.2V168.1L205.4 167.4L205.75 166.25L206.1 165.05L206.2 164.65L206.6 165.05L208 166.2L209.9 167.4L211.1 168.1L212 168.65C211.567 168.95 211.183 169.567 210.85 170.5L207.85 169.1L205.15 168.2ZM171.85 201.45L171.5 201.95L172 201.7L171.85 201.45ZM143.05 193L147.9 189.1C146.267 188.567 144.183 189.167 141.65 190.9C139.083 192.633 137.533 194.533 137 196.6C138.267 196.1 140.283 194.9 143.05 193ZM192.35 274.2C192.35 271.133 191.933 268.417 191.1 266.05C192.233 267.35 193.533 268.6 195 269.8C199.4 275 205.917 278.833 214.55 281.3L211.25 283.45C209.35 284.717 207 285.617 204.2 286.15L190.9 286L181.85 283.95C184.983 283.25 187.517 281.9 189.45 279.9C191.383 277.9 192.35 276 192.35 274.2Z" fill="#4A452C"/>
<path fill-rule="evenodd" clip-rule="evenodd" d="M147.6 3.65L146.75 9.60001L146.15 11.95L147.15 12.1L154.15 13.2L153.7 12.85C152.1 11.55 151.233 10.5 151.1 9.70001C150.967 8.90001 151.117 7.76667 151.55 6.30001C151.483 5.13334 150.167 4.25 147.6 3.65ZM2.25 380.1H0V372.65L5.45 363.15L17.8 343.8L32.55 320.15C36.45 313.55 40.2 306.883 43.8 300.15L44.05 299.7L44.85 298.4C49.9833 289.9 53.7333 283.117 56.1 278.05L56.65 276.85L58.3 272.95L61.65 266.2L62.05 265.4L57 277.95L67.65 255.15C71.05 247.683 74.1667 241.15 77 235.55L80.35 228.95L82.8 224.4L84.15 221.95L94.55 202.8L94.05 204.95L94.45 204.2L99.6 194.3L101.95 189.95L104 185.6L104.7 184.1L104.05 184.55L103.8 184.7C106.333 180.833 107.883 177.55 108.45 174.85L111.4 167.4L111.9 165.95L112.25 165.05C113.65 160.683 114.35 157.317 114.35 154.95L114.25 153C114.75 149.833 115 146.867 115 144.1L114.35 138.3L114.3 137.9L114.1 136.25L113.6 131.75C113.6 130.783 114.167 129.867 115.3 129L115.9 128.6L117.5 127.65L126 124.15C129.733 122.45 132.55 120.617 134.45 118.65C137.05 115.983 138.35 112.7 138.35 108.8V107.95L138.6 108.2L138.65 107.9C138.517 106.633 138.25 105.417 137.85 104.25L137.3 102.9C135.633 101.233 132.517 100.967 127.95 102.1C124.883 102.867 120.867 104.217 115.9 106.15L113.2 107.2H113.05L112.05 107.15L112 107.2L107.65 107.15L108.2 106.75H107.95L107.9 106.85L107.65 106.7C98.7167 105.367 91.5167 101.517 86.05 95.15L84.6 94.3C83.5667 93.4333 82.35 93 80.95 93C79.55 93 78.3333 93.3333 77.3 94C76.2667 94.6667 75.6333 95 75.4 95C73.9667 95 72.0167 91.7667 69.55 85.3C69.55 84.6 70.8 83.65 73.3 82.45C75.3667 81.45 76.7 80.2667 77.3 78.9C76.0333 74.8667 75.3 70.7333 75.1 66.5V65.55C74.4 65.1167 74.05 64.3167 74.05 63.15C74.05 61.7167 73.45 60.7833 72.25 60.35L68.15 60.6L65.85 60.5L65.35 57.8L65.2 57.05L65 55.35L65.2 54.25L65.6 53.15C66.0667 52.05 66.5833 51.3167 67.15 50.95L76.2 50C76.5 49.7333 76.95 49.5 77.55 49.3L79.85 41.95L80.45 40.45C81.4833 38.9167 82.6 37.4333 83.8 36C83.0333 34.8333 82 32.8833 80.7 30.15L78.1 24.9C78.1 23.3667 79.15 21.7167 81.25 19.95C83.2833 18.2167 84.8333 17.5167 85.9 17.85C86.7333 18.35 87.4667 19.0667 88.1 20L89.55 22.35C90.5833 23.75 92.3667 24.7167 94.9 25.25L96.4 24.1C100.8 20.9333 105.567 18.35 110.7 16.35L111.2 14.2C111.2 13.3 110.617 12 109.45 10.3C108.25 8.60001 107.65 7.55 107.65 7.15C107.65 6.75 108.167 6.08334 109.2 5.15C110.267 4.15 111.433 3.33334 112.7 2.70001L114.55 1.95001C115.717 1.61667 116.7 1.61667 117.5 1.95001C118.367 2.31667 119 3.13334 119.4 4.4C120.5 7.06667 121.317 8.80001 121.85 9.60001C122.65 10.8 123.6 11.75 124.7 12.45L126.4 12.1L133.25 10.9L138.85 11.1L138.9 10.9L141.85 11.3L143.4 3.30001C143.4 2.83334 143.583 2.38334 143.95 1.95001L145 1.10001C146.067 0.466675 147.267 0.116672 148.6 0.0500055C150.933 -0.116661 152.467 0.516674 153.2 1.95001C153.567 2.65001 153.75 3.51667 153.75 4.55001C153.583 5.55001 153.95 6.88334 154.85 8.55001L157.75 13.75V13.8L159.45 14.1L163.55 15.65L167.25 17.05L167.5 17.2L169.1 18.05L169.45 17.8C171.717 16.3333 173.933 14.3167 176.1 11.75C177.767 9.85 180.233 9.46668 183.5 10.6C186.5 11.6667 188 12.7167 188 13.75C188 14.75 187.083 16.2 185.25 18.1C183.417 20.0333 182.5 22.1333 182.5 24.4C182.5 25.2333 182.867 26.2833 183.6 27.55L184.4 28.8L185.1 29.45L186.5 31.55L186.65 31.6L187.15 31.95L190.55 36.25L191.05 35.85C191.35 36.05 191.55 36.35 191.65 36.75L191.9 37.65C192.167 38.35 193.367 38.7 195.5 38.7L198.4 36.9C200.4 35.5667 202 34.6833 203.2 34.25L204.95 34.05L208.2 38.85L209.45 40.65L209.6 42.15V43.75C209.6 45.9833 208.15 47.5833 205.25 48.55C203.717 49.0833 202.733 49.4667 202.3 49.7C201.4 50.3 200.95 51.1 200.95 52.1V52.25L201.4 52.9L201.85 53.6L202.85 54.65L202.7 55.65L205.4 61.7L205.75 61.9C206.65 62.8667 207.467 63.35 208.2 63.35L211.3 62.35C213.1 61.7167 214.467 61.4 215.4 61.4C216.267 61.4 217.217 62.7833 218.25 65.55C219.15 68.0167 219.6 69.8833 219.6 71.15L219.5 73.1C219.233 73.9 218.65 74.4833 217.75 74.85C214.717 76.1833 212.733 77.25 211.8 78.05L210.75 78.5C212.017 83.8667 212.9 89.4333 213.4 95.2L216.45 95.6C219.717 95.6 221.75 96.15 222.55 97.25C222.983 97.8833 223.2 99.6167 223.2 102.45C223.2 104.55 223.1 105.967 222.9 106.7C222.667 107.367 222.167 107.983 221.4 108.55L217.95 110.8L213.65 114.65C213.483 118.917 213.1 123.5 212.5 128.4L213.65 128.2L213.35 129C212.783 130.333 212.767 131.333 213.3 132C213.7 132.567 214.667 133.033 216.2 133.4C218.133 133.867 219.35 134.233 219.85 134.5C220.683 134.933 221.217 135.517 221.45 136.25L221.65 137.45V138.3C221.55 140.067 221.183 141.417 220.55 142.35C220.017 143.183 219.083 143.883 217.75 144.45C215.55 145.35 214.267 145.933 213.9 146.2C212.567 146.967 211.383 147.967 210.35 149.2L209.6 150.15H209.5L208.15 157.2L208.45 157.3C207.817 158.933 207.783 160.3 208.35 161.4C208.783 162.233 209.667 163.05 211 163.85L212.85 165.05L214.2 165.95C214.7 166.383 215.083 166.867 215.35 167.4L215.6 168.1L215.7 169C215.7 169.733 215.267 171.167 214.4 173.3C213.267 176.067 212 177.45 210.6 177.45L207.95 176.6C206.75 176.033 205.867 175.75 205.3 175.75C204.3 175.75 203.617 176.267 203.25 177.3C202.917 178.1 202.35 178.567 201.55 178.7L198.65 187.65L198 189.75L198.5 192.65L199.1 194.3C199.833 195.667 201 196.633 202.6 197.2L204.7 198.15C205.3 198.65 205.6 199.417 205.6 200.45L204.4 204.8C203.333 207.7 202.167 209.15 200.9 209.15C200.433 209.15 199.933 209.017 199.4 208.75C198.533 208.283 197.033 207.783 194.9 207.25L192.45 211.75V212.15V212.3L192.2 212.45C191.4 213.15 190.867 215.167 190.6 218.5L190.35 219.6L190.25 221.15V221.95C190.283 222.883 190.45 223.667 190.75 224.3C191.117 225.033 192.5 225.833 194.9 226.7C197.033 227.433 198.1 228.15 198.1 228.85V228.95L197.6 230.6L197.85 230.9C197.85 232.8 197.55 234.35 196.95 235.55C196.183 236.983 194.983 237.933 193.35 238.4C191.75 238.867 190.733 239.267 190.3 239.6C189.833 239.967 189.5 240.45 189.3 241.05L189.05 241.85L189.4 245.1L189.8 246.1C190.3 247.3 190.467 248.35 190.3 249.25C190.433 249.283 190.367 249.317 190.1 249.35C190.567 251.517 191.167 253.55 191.9 255.45C192.767 257.683 193.8 259.733 195 261.6C199.2 271.1 206.6 276.15 217.2 276.75C217.9 277.05 218.267 277.25 218.3 277.35C218.567 277.683 218.7 278.383 218.7 279.45L215.35 292.1L213 300.15L212.4 301.95L212.2 302.7H212.15L212.05 302.85V302.65L208.4 302.75L208.05 302.85L206.3 303.2C203.033 304.233 200.2 306.55 197.8 310.15L195.45 310.05C197.05 307.817 199.083 305.783 201.55 303.95L195 305L183.65 306.55C181.417 307.05 179.617 308.017 178.25 309.45H177.1L177.55 309.15C180.017 307.617 183.483 306.1 187.95 304.6L195 303.2L196.15 302.85L204.25 300.15L205.7 299.65C208.133 298.917 209.933 298.583 211.1 298.65L210.9 298C211.733 297.3 213.433 292.3 216 283V282.7L216.05 282.4L215.95 282L215.9 281.65L214.9 281.4L211.3 283.9L204.5 287.4L191.1 287.45C185.6 286.65 180.767 285.65 176.6 284.45H176.55L176.3 284.35L173 283.3L173.05 283.85L170.3 290.55C168.467 295.183 167.55 298.317 167.55 299.95V300.15C167.55 300.983 167.65 301.833 167.85 302.7L167.95 302.85L171.4 307.7C171.367 307.967 171.583 308.4 172.05 309L172.25 309.3L166.85 309.1L165.35 306.85L165.25 306.5C164.55 303.4 164 300.117 163.6 296.65L165.4 299.15C165.5 296.983 165.9 294.8 166.6 292.6C167.233 290.6 168.383 287.883 170.05 284.45L166.35 281.9L164.35 280.4L163.25 283.2L162.65 284.9L162.05 285.95L161.85 286.55C161.483 287.483 161.233 288.3 161.1 289L160.7 290.25L159.9 288.3L160 288.15L160.5 286C160.933 286.133 161.067 285.583 160.9 284.35V283.75L160.8 283.65L161.9 281.05C161.833 280.15 159.65 278.4 155.35 275.8L154.1 275.1C151.4 273.867 148.55 272.683 145.55 271.55L141.35 270.05L140.35 270.1L138.05 269.4C136.917 268.967 135.733 268.65 134.5 268.45L132 268.2L131.3 267.8L127.7 267.2L127.4 267.15L124.75 266.75L124.55 266.65L124.95 266.35L121.35 266.15L119.9 266.2L118.05 266.05L116.7 266.45L109.45 267.2L105.6 267.8L106.2 268L106.1 268.35C104.333 268.817 103 269.717 102.1 271.05L101.75 271.75L100.5 278.05L99.9 280.7C98.6333 285.967 98 288.967 98 289.7H97.8L97.25 293.45L96.3 300.15C95.8667 303.717 95.65 306.617 95.65 308.85C95.65 317.25 96.55 325.733 98.35 334.3V334.45C99.75 341.35 101.567 346.867 103.8 351C100.533 345.433 98.2 340.283 96.8 335.55L95.9 332.2C95 328 94.55 320.217 94.55 308.85C94.55 306.417 94.75 303.517 95.15 300.15L96.05 293.45L98.1 278.25H98.9V278.35L98.95 278.05L99.35 276.75L100.1 273.6L99.65 273.25L99.6 273.05L100.3 271.7C100.3 270.867 100.167 270.517 99.9 270.65L99 270.6L97 270.5L96.9 269.85L92.3 271.45C88.3333 272.15 84.7167 273.5 81.45 275.5L81.8 275.25C82.9 274.15 83.95 273.25 84.95 272.55C81.95 274.317 79.0667 276.15 76.3 278.05L75.05 278.95L70 288.5V289.15L67.8 297.8L67.2 300.15C66.1667 304.217 65.65 306.533 65.65 307.1C65.65 332.067 68.8833 353 75.35 369.9C76.6833 373.4 78.1833 376.8 79.85 380.1H77.9C76.2333 376.9 74.75 373.633 73.45 370.3C69.7833 361 67.2833 350.567 65.95 339C65.0167 330.8 64.55 320.283 64.55 307.45L64.75 300.15L64.85 299.25L67.65 292.8V292.75L69.6 286.45L69.8 285.55L69.95 284.1L68.7 284C63.7 288.267 59.3 292.883 55.5 297.85L53.85 300.15C51.2167 303.917 48.6 308.217 46 313.05L44.2 316.7L40.8 327.15L40.85 327.9L39.2 333.3L38.75 334.75C38.2167 337.417 37.85 340.267 37.65 343.3C38.05 354.767 40.0167 367.033 43.55 380.1H41.85C39.05 368.867 37.35 357.883 36.75 347.15C36.5167 346.283 36.4 345.117 36.4 343.65L36.5 340.85V338.6C36.5 337.1 36.8833 335.25 37.65 333.05L38.4 329.75C35.1667 337.883 32.4333 345.233 30.2 351.8L29.15 354.95C27.8167 359.15 26.5167 363.767 25.25 368.8L25.05 380.1H18.3C20.1 372.733 22.5667 364.35 25.7 354.95L30.3 341.6C33.0333 333.867 35.6667 326.717 38.2 320.15L43.8 306.25L38.6 316.1L24.75 340.35L11.7 362.55C8.16667 368.683 5.01667 374.533 2.25 380.1ZM117.85 380.1H117.45L114.1 375.2L113.2 373.9L114.15 375.2L117.85 380.1ZM114.55 380.1H113.5L112.2 375.6L111.05 371.5C109.383 365.533 108.083 360.5 107.15 356.4L105.55 353.85L107 355.75C105.867 350.55 105.3 346.867 105.3 344.7C105.3 340.733 105.4 337.933 105.6 336.3H106.4C108.067 348.5 110.167 360.383 112.7 371.95L113.45 375.45L114.55 380.1ZM167.1 36.55L167.2 35.7C168.267 38.1333 169.083 40.2833 169.65 42.15L170.3 45.2L170.45 53.75C170.45 59.1833 169.5 65.25 167.6 71.95C165.6 78.7167 162.8 85.3667 159.2 91.9C152.967 103.333 145.683 112.333 137.35 118.9C135.417 121.267 132.767 123.55 129.4 125.75L123.5 129L121.35 130.1C118.917 131.367 117.7 132.3 117.7 132.9V136.25L117.65 138.3C117.417 144.133 116.833 149.967 115.9 155.8L115.1 160.35V160.45V160.6L114.2 165.05L113.65 167.4L113.35 168.45L114.1 167.4L114.2 167.25L115.75 165.05L115.9 164.85C120.533 158.683 125.183 154.133 129.85 151.2V151.4C126.05 154.9 122.267 159.45 118.5 165.05L116.9 167.4L116.45 168.1L115.6 169.45L110.75 177.8L109.2 182.4L106.7 185.6C105.7 188.367 104.5 191.267 103.1 194.3L99.5 201.7L98.1 204.25L101.6 200.45V200.35L103.5 196.85L106.4 194.3C109.667 191.533 113.433 188.8 117.7 186.1C123.4 182.5 130.75 178.517 139.75 174.15L140 174L152.3 168.1L153.75 167.4L158.8 165.05L163.7 162.75C172.1 158.717 179.417 154.2 185.65 149.2C189.917 145.8 193.667 142.167 196.9 138.3L198.55 136.25L201.2 132.7L203.5 129C206.5 123.867 208.783 118.367 210.35 112.5L210.3 108.25C210.1 100.483 209.467 93.5167 208.4 87.35C206.233 74.5167 201.983 63.0667 195.65 53L196.45 56.3C197.717 61.7333 198.35 66.4333 198.35 70.4C198.35 84.3667 194.633 95.9 187.2 105C184.2 108.733 180.233 112.5 175.3 116.3C172.3 118.567 167.433 121.917 160.7 126.35L156.7 129L146.2 136.25L144.75 137.35L143.5 138.3C139.067 141.733 135 145.25 131.3 148.85L137.45 141.9L140.8 138.3L142.8 136.25C144.733 134.417 146.067 133.333 146.8 133C149.6 131.767 152.3 130.433 154.9 129C166.967 122.333 176.967 113.517 184.9 102.55C188.933 96.9167 192.033 91.1833 194.2 85.35C196.233 79.8833 197.25 74.9167 197.25 70.45C197.25 65.7167 196.867 61.5 196.1 57.8C195.567 55.3 194.783 52.7167 193.75 50.05L193.35 49.55C193.017 47.9167 192.283 46.1 191.15 44.1H191.05L189.5 41.5C187.767 38.9 185.5 36.05 182.7 32.95L182.9 33.1L177.15 26.6L173.65 24.1C171.817 22.9 169.9 21.8167 167.9 20.85L167.2 20.7L167.1 20.5C160.267 17.3667 152.417 15.5833 143.55 15.15L143.3 15.3L143.05 15.15L139.35 15.05L126.55 15.9L128.4 15.85C139.667 15.85 149.05 18.6 156.55 24.1L156.6 24.2C159 25.9667 161.133 27.9833 163 30.25L163.75 31.25L165.55 33.65L165.4 33.9L162.15 29.7C160.417 27.7 158.683 26.0167 156.95 24.65L156.2 24.1L155 23.3C148 18.7333 138.85 16.45 127.55 16.45L125.35 16.8L120.65 17.1L119.8 17.15C118.467 17.4833 117.167 17.85 115.9 18.25C114.933 18.55 114.017 18.8833 113.15 19.25L112.3 19.6L110.7 20.3L109.1 21.65C108.3 21.9167 107.55 22.2167 106.85 22.55L107 22.3L105.8 23.05L104.05 24.1L103.15 24.75L102.3 25.35L94.4 30.3C92.1667 31.7333 90.5667 33.15 89.6 34.55L88.65 35.3L86.85 37.05L86.75 37.15L86.35 37.65L84.25 41.05L84.1 41.45L83.9 42.1L81.2 46.55L80.35 49.9C78.65 56.7667 77.8 61.1667 77.8 63.1C77.8 69.9 79.3167 76.5833 82.35 83.15L83 84.55C84.2333 87.0167 85.6333 89.25 87.2 91.25L87.3 91.3C89.3 92.4667 90.3 93.2833 90.3 93.75L90.15 94.55C93.05 97.3167 96.3833 99.45 100.15 100.95L97.8 98.65C96.2667 96.7833 95.5 94.2833 95.5 91.15C95.5 83.5833 97.85 78.0833 102.55 74.65C105.117 72.75 108.033 71.7 111.3 71.5L111.8 71.45L115.65 71.65H115.9L116.7 71.75L115.9 71.8C109.4 71.9667 104.383 74.3833 100.85 79.05C100.35 79.65 99.9 80.3 99.5 81C97.2667 84.7 96.15 88.0667 96.15 91.1C96.15 94.1 96.8833 96.55 98.35 98.45L101.25 101.4C103.383 102.133 105.65 102.7 108.05 103.1L115.9 100.7C125.067 98.2 131.633 97.6333 135.6 99C136.7 99.4 137.633 100 138.4 100.8L139 101.15L138.8 99.85C138.067 94.3833 137.567 91.2833 137.3 90.55L136.2 88.05C135.333 86.2833 134.25 84.5167 132.95 82.75L131.9 81.4L131.3 80.65L130.65 79.85C129.05 77.9167 127.433 76.3333 125.8 75.1L127.2 75.95L127.7 76.3C129.833 77.8 131.8 79.65 133.6 81.85C138.3 87.5833 140.65 94.5 140.65 102.6V103.9L141.2 105.55V105.9L141.05 108.8C141.05 111.533 140.333 114.133 138.9 116.6C146.5 109.633 153.067 101.15 158.6 91.15C162.267 84.5167 165.05 78.1333 166.95 72C168.85 65.7 169.8 59.6667 169.8 53.9V50.6L169.6 45.5L169.05 42.15C168.617 40.25 167.95 38.4333 167.05 36.7L167.1 36.55ZM181.95 17.7L183.6 15L181.8 14C180.933 13.5667 180.283 13.35 179.85 13.35C179.517 13.35 178.283 14.6333 176.15 17.2C175.083 18.4667 174.05 19.4167 173.05 20.05L174.3 20.7L176.75 22L177.9 22.6L179.55 24.1L180.25 24.75C179.75 23.65 179.5 22.8833 179.5 22.45C179.5 22.05 180.133 20.7667 181.4 18.6L181.7 18.15L181.95 17.7ZM197.85 46.7L198.8 48.3L199.2 47.9C200 47.2667 202.35 46 206.25 44.1V43.65L205.85 42.15L205.75 41.9C205.017 40.1667 203.767 38.8833 202 38.05C202 39.0833 201.8 39.8833 201.4 40.45C200.6 41.5167 198.75 42.05 195.85 42.05L194.75 41.95L194.9 42.15L197.85 46.7ZM191.45 44.05H191.35V44.1L192.25 44.8L191.5 43.7L191.45 44.05ZM215.4 67.2L215.05 65.1H211.65C210.05 66.1667 208.55 66.5167 207.15 66.15L208.7 70.85L209.65 74.25C210.05 73.9833 210.533 73.7 211.1 73.4C212.133 72.9 213.933 72.15 216.5 71.15L216.35 70.65C215.917 69.35 215.6 68.2 215.4 67.2ZM213.8 102.25L213.9 106.15V107.2L213.85 108.75C214.517 107.95 215.317 107.217 216.25 106.55L218.7 105.1L219.75 104.15L219.55 102L219.45 101.5V101.35L219.25 100.45L219.2 100.15L219.1 99C216.833 99.2333 215 98.9833 213.6 98.25L213.8 102.25ZM207.45 147.9V147.8L207.7 146.5L207.6 145.5C207.6 144.333 207.85 143.45 208.35 142.85L208.55 141.5L208.45 138.3L208.35 136.25V135.9C208.283 133.267 208.3 131.15 208.4 129.55L208.45 129C208.717 126.267 209.35 124.2 210.35 122.8V116.6C208.917 120.767 206.917 124.9 204.35 129L199.3 136.15L199.2 136.25L197.55 138.3C194.383 142.133 190.817 145.767 186.85 149.2C180.15 155.033 172.35 160.317 163.45 165.05L163.05 165.25L158.8 167.4L157.4 168.1L140.7 176.45L139.75 176.95C131.083 181.25 124.2 184.967 119.1 188.1L109.85 194.3C106.817 196.533 104.133 198.8 101.8 201.1L101.4 201.6L100.7 203.15L101.05 202.05L95.55 208.85L89.8 219.1L88.5 221.95L86.55 225.95L85.05 228.95L81.75 235.55L71.85 255.35L72.65 254.45C78.45 247.917 85.3833 241.617 93.45 235.55C96.3833 233.317 99.45 231.117 102.65 228.95L104 228.05L104.15 228.2C107.483 225.967 110.967 223.9 114.6 222L114.7 221.95C122.033 218.05 129.4 215.15 136.8 213.25L139.75 212.45C154.45 208.317 167.683 202.267 179.45 194.3L182.55 192.15L187.15 188.65C191.217 185.35 194.633 182.017 197.4 178.65C198.867 176.85 200.083 175.133 201.05 173.5L202.85 168.1L203.05 167.4L203.55 165.25L203.6 165.05C203.967 162.783 204.833 158.817 206.2 153.15L207.15 149.2L207.45 147.9ZM89.15 30.3L92.75 26.95H92.7C90.9667 26.95 89.2833 26.1833 87.65 24.65L85.45 22C84.8833 22.2 84.35 22.5833 83.85 23.15L82.2 24.4L85.75 29.55C86.3833 30.4833 86.8 31.45 87 32.45L89.15 30.3ZM114.85 14.9L115.9 14.55L121.3 13.15C119.9 11.6833 118.283 9.28334 116.45 5.95001L112.2 8.05001C113.033 8.48334 113.7 9.50001 114.2 11.1C114.633 12.3667 114.85 13.4833 114.85 14.45V14.9ZM68.4 55.1L68.3 55.35L68.75 57C71.8833 56.7667 74.15 57.2167 75.55 58.35L76.1 55.45L76.7 52.6C74.4667 53.4667 71.8167 53.9667 68.75 54.1L68.4 55.1ZM74.45 87.7L74.8 88.35L75.65 90.35C77.9833 89.65 79.7833 89.3 81.05 89.3L81.9 89.35L80.85 87.5L79.85 85.45L79 83.6C77.9333 84.7333 76.25 85.7 73.95 86.5L74.45 87.7ZM154.65 209.35C149.883 211.45 144.917 213.367 139.75 215.1L130.4 218C126.1 219.2 122.083 220.517 118.35 221.95C112.85 224.05 107.933 226.383 103.6 228.95L100.75 230.75L95.75 234.5L94.4 235.55C87.4667 241.017 81.0667 247.25 75.2 254.25C72.2667 257.75 69.5667 261.283 67.1 264.85L60.65 278.05L55.9 288.65L50.9 300.15L48.55 305.55C49.6833 303.617 50.8333 301.817 52 300.15L53.75 297.75C57.7167 292.583 62.4167 287.7 67.85 283.1L68.05 282.45C68.3167 282.25 68.7333 282.067 69.3 281.9L74.35 278.05C78.9833 274.717 84.05 271.55 89.55 268.55C96.8167 264.617 106.983 259.567 120.05 253.4L145.8 241.05L150.1 238.9C150.6 238.633 151.117 238.383 151.65 238.15L156.55 235.55L157.4 235.1L158.9 234.3L174.2 224.85L175 224.3L175.05 224.25L178.05 221.95C183.05 218.017 186.533 214.317 188.5 210.85L189.35 208.35L189.5 208.05V207.95L189.55 208L190 208.2L190.35 207.25L190.45 206.9C191.15 203.6 192.317 199.4 193.95 194.3L196.15 187.65L199.7 177.35V177.1L200.1 176.25L200.4 175.5L199.6 176.65L197.55 179.35C193.55 184.25 188.333 189.067 181.9 193.8L181.2 194.3C173.767 199.667 165.55 204.4 156.55 208.5L154.9 209.25L154.65 209.35ZM183.55 218.05L179.3 221.95C176.6 224.217 173.433 226.55 169.8 228.95L167.8 230.25L166.5 231.1L160.25 234.8L159.95 235L159.65 235.15L158.95 235.55L153.35 238.6L152.95 238.85L148.65 241.05L147.9 241.45C141.6 244.683 133.55 248.65 123.75 253.35C107.917 260.917 97.4333 265.983 92.3 268.55L88.9 270.3C92.7667 268.767 99.1167 267.4 107.95 266.2H108.2L110.9 265.85L111.6 265.75L120.95 264.75L124.25 264.45C127.517 265.017 131.017 265.833 134.75 266.9L139.2 267.25L144.4 267.05L145.75 266.75L145.95 266.7L152.4 265.15L154.35 264.6L157.65 263.55L161.05 262.35L169.55 259.15V259.25L165.45 261.75C169.35 259.75 172.75 257.2 175.65 254.1C179.383 250.133 182.05 245.783 183.65 241.05L184.2 239.3H184.3L184.4 239.15L184.45 235.55L184.75 228.95C184.917 226.217 185.15 223.883 185.45 221.95L185.95 219.5C186.217 218.333 186.8 216.517 187.7 214.05L187.05 215.05L187.9 212.6C186.8 214.333 185.35 216.15 183.55 218.05ZM181.55 246.3L180.7 248C179.2 251.067 177.417 253.567 175.35 255.5C173.017 257.733 169.717 259.817 165.45 261.75L162.8 263.25L158.4 265.5L157.1 266.1L156.35 266.4L151.25 268.25L145.6 269.55L145.8 269.8L145.1 269.6L143.75 269.8L147.1 271L146.4 270.65C148.833 270.883 152.183 271.983 156.45 273.95C158.717 274.983 160.45 275.983 161.65 276.95L163.6 277.7L164.05 278C169.483 280.133 174.683 281.9 179.65 283.3L181.9 283.35C185.2 283.35 187.817 281.617 189.75 278.15C191.15 275.75 191.85 273.75 191.85 272.15L191.4 268.95V268.9L190.05 265L189.9 264.6L189.55 264.05L188.65 262.75C186.55 259.417 185.233 255.5 184.7 251C184.5 249.333 184.4 246.017 184.4 241.05V240.5V239.9L183.9 241.05L181.55 246.3ZM71.8 281.45L71.4 281.75L71.55 281.8L71.8 281.45ZM217.25 138.95L217.7 138.3L218.4 136.85C216.7 136.95 215.25 136.75 214.05 136.25L212.3 135L211.8 134.3L211.5 136.25L211.25 138.3L211.15 139.1V139.2L211.1 139.45L210.85 141.2L210.8 141.4V141.6L210.75 141.75L211.9 141.5C213.533 141.233 214.733 140.883 215.5 140.45L215.6 140.4L215.75 140.35L216.05 140.1L216.65 139.6L217.25 138.95ZM210.85 170.5C211.183 169.567 211.567 168.95 212 168.65L211.1 168.1L209.9 167.4L208 166.2L206.6 165.05L206.2 164.65L206.1 165.05L205.75 166.25L205.4 167.4L205.15 168.1V168.2L203.75 172.15L205.25 171.95L207.85 172.55L209.95 173.3L210.6 171.25L210.85 170.5ZM193.9 204.1L195.85 203.8L198.75 204.3L200.9 204.75L201.2 203.1L201.55 200.95C201.55 200.683 200.483 199.667 198.35 197.9L196.15 195.75L194.65 200.95L193.9 204.1ZM190.65 227.95L189.05 226.9V227.1L189 228.95L188.85 235.55V236.65L191.2 235.55L194.5 234.8V231.5L191.8 228.95L190.65 227.95ZM192.35 274.2C192.35 276 191.383 277.9 189.45 279.9C187.517 281.9 184.983 283.25 181.85 283.95L190.9 286L204.2 286.15C207 285.617 209.35 284.717 211.25 283.45L214.55 281.3C205.917 278.833 199.4 275 195 269.8C193.533 268.6 192.233 267.35 191.1 266.05C191.933 268.417 192.35 271.133 192.35 274.2Z" fill="#362612"/>
<path fill-rule="evenodd" clip-rule="evenodd" d="M167.1 36.55L167.05 36.7C167.95 38.4333 168.617 40.25 169.05 42.15L169.6 45.5L169.8 50.6V53.9C169.8 59.6667 168.85 65.7 166.95 72C165.05 78.1333 162.267 84.5167 158.6 91.15C153.067 101.15 146.5 109.633 138.9 116.6C140.333 114.133 141.05 111.533 141.05 108.8L141.2 105.9V105.55L140.65 103.9V102.6C140.65 94.5 138.3 87.5833 133.6 81.85C131.8 79.65 129.833 77.8 127.7 76.3L126.2 74.95C121 72.2167 116.2 71.05 111.8 71.45L111.3 71.5C108.033 71.7 105.117 72.75 102.55 74.65C97.85 78.0833 95.5 83.5833 95.5 91.15C95.5 94.2833 96.2667 96.7833 97.8 98.65L100.15 100.95C96.3833 99.45 93.05 97.3167 90.15 94.55L90.3 93.75C90.3 93.2833 89.3 92.4667 87.3 91.3L87.2 91.25C85.6333 89.25 84.2333 87.0167 83 84.55L82.35 83.15C79.3167 76.5833 77.8 69.9 77.8 63.1C77.8 61.1667 78.65 56.7667 80.35 49.9L81.2 46.55L83.9 42.1L84.1 41.45L84.25 41.05L86.35 37.65L86.75 37.15L86.85 37.05L88.65 35.3L89.6 34.55C90.5667 33.15 92.1667 31.7333 94.4 30.3L102.3 25.35L103.15 24.75L104.05 24.1L105.8 23.05L107 22.3L106.85 22.55C107.55 22.2167 108.3 21.9167 109.1 21.65L110.7 20.3L112.3 19.6L113.15 19.25C114.017 18.8833 114.933 18.55 115.9 18.25C117.167 17.85 118.467 17.4833 119.8 17.15L120.65 17.1L125.35 16.8L127.55 16.45C138.85 16.45 148 18.7333 155 23.3L156.2 24.1L156.95 24.65C158.683 26.0167 160.417 27.7 162.15 29.7L165.4 33.9L165.55 33.65L163.75 31.25C164.683 32.25 165.55 33.3667 166.35 34.6L167.15 35.95L167.1 36.55ZM144.95 61.6C144.65 61.3 143.983 61.1667 142.95 61.2L137.45 61.6L133.4 64.75H137.45C139.85 63.5833 141.8 62.7833 143.3 62.35C144.2 62.0833 144.75 61.8333 144.95 61.6ZM151.15 78.05C152.183 78.05 153.183 77.8 154.15 77.3C155.017 76.8333 155.45 76.4 155.45 76C152.083 74.8667 149.633 74.6 148.1 75.2C147.267 75.5333 146.6 76.1 146.1 76.9C146.8 77.6667 148.483 78.05 151.15 78.05ZM92.25 57.15L86.15 66.25L86.6 66.7C88.8333 64.4 91.1 61.6333 93.4 58.4C95.8667 55 97.6 52.1333 98.6 49.8C96.9 50.8667 94.7833 53.3167 92.25 57.15ZM183.55 218.05C185.35 216.15 186.8 214.333 187.9 212.6L187.05 215.05L187.7 214.05C186.8 216.517 186.217 218.333 185.95 219.5L185.45 221.95C185.15 223.883 184.917 226.217 184.75 228.95L184.45 235.55L184.4 239.15L184.3 239.3H184.2L183.65 241.05C182.05 245.783 179.383 250.133 175.65 254.1C172.75 257.2 169.35 259.75 165.45 261.75L169.55 259.25V259.15L161.05 262.35L157.65 263.55L154.35 264.6L152.4 265.15L145.95 266.7L145.75 266.75L141.05 264.95C136.15 262.65 133.7 260.4 133.7 258.2C133.7 257.533 135.283 255.317 138.45 251.55L141.85 247.7L145.35 246.1C151.983 242.967 158.167 239.533 163.9 235.8C167.5 233.467 170.667 231.183 173.4 228.95C176.3 226.55 178.717 224.217 180.65 221.95L183.55 218.05Z" fill="#413C26"/>
<path fill-rule="evenodd" clip-rule="evenodd" d="M195.45 310.05L195.25 310.25L195 310.65C190.833 314.75 188.75 319.433 188.75 324.7C188.75 325.9 188.9 327.083 189.2 328.25C187.633 326.917 186.117 325.533 184.65 324.1C182.15 321.633 179.183 318.15 175.75 313.65C174.55 313.917 174.1 313.8 174.4 313.3C174.633 312.833 173.917 311.5 172.25 309.3L172.05 309C171.583 308.4 171.367 307.967 171.4 307.7L167.95 302.85L167.85 302.7C167.65 301.833 167.55 300.983 167.55 300.15V299.95C167.55 298.317 168.467 295.183 170.3 290.55L173.05 283.85L173 283.3L176.3 284.35L176.55 284.45H176.6C180.767 285.65 185.6 286.65 191.1 287.45L204.5 287.4L211.3 283.9L214.9 281.4L215.9 281.65L215.95 282L216.05 282.4L216 282.7V283C213.433 292.3 211.733 297.3 210.9 298L211.1 298.65C209.933 298.583 208.133 298.917 205.7 299.65L204.25 300.15L196.15 302.85L195 303.2L187.95 304.6C183.483 306.1 180.017 307.617 177.55 309.15L177.1 309.45H178.25C179.617 308.017 181.417 307.05 183.65 306.55L195 305L201.55 303.95C199.083 305.783 197.05 307.817 195.45 310.05ZM127.7 76.3L127.2 75.95L125.8 75.1C127.433 76.3333 129.05 77.9167 130.65 79.85L131.3 80.65L131.9 81.4L132.95 82.75C134.25 84.5167 135.333 86.2833 136.2 88.05L137.3 90.55C137.567 91.2833 138.067 94.3833 138.8 99.85L139 101.15L138.4 100.8C137.633 100 136.7 99.4 135.6 99C131.633 97.6333 125.067 98.2 115.9 100.7L108.05 103.1C105.65 102.7 103.383 102.133 101.25 101.4L98.35 98.45C96.8833 96.55 96.15 94.1 96.15 91.1C96.15 88.0667 97.2667 84.7 99.5 81C99.9 80.3 100.35 79.65 100.85 79.05C104.383 74.3833 109.4 71.9667 115.9 71.8L116.7 71.75L115.9 71.65H115.65L111.8 71.45C116.2 71.05 121 72.2167 126.2 74.95L127.7 76.3ZM176.75 22C177.817 20.5333 179.55 19.1 181.95 17.7L181.7 18.15L181.4 18.6C180.133 20.7667 179.5 22.05 179.5 22.45C179.5 22.8833 179.75 23.65 180.25 24.75L179.55 24.1L177.9 22.6L176.75 22ZM205.75 41.9L205.85 42.15L206.25 43.65V44.1C202.35 46 200 47.2667 199.2 47.9L198.8 48.3L197.85 46.7L197.55 46.2C200.15 44.7 202.883 43.2667 205.75 41.9ZM189.5 65L189.75 66.25L189.25 69.3C188.917 70.5 188.033 71.2 186.6 71.4L185 71.35C184.7 71.3167 184.55 70.85 184.55 69.95C184.55 69.2833 185.533 67.6333 187.5 65H189.5ZM215.4 67.2C215.6 68.2 215.917 69.35 216.35 70.65L216.5 71.15C213.933 72.15 212.133 72.9 211.1 73.4C210.533 73.7 210.05 73.9833 209.65 74.25L208.7 70.85C210.833 69.55 213.067 68.3333 215.4 67.2ZM151.15 78.05C148.483 78.05 146.8 77.6667 146.1 76.9C146.6 76.1 147.267 75.5333 148.1 75.2C149.633 74.6 152.083 74.8667 155.45 76C155.45 76.4 155.017 76.8333 154.15 77.3C153.183 77.8 152.183 78.05 151.15 78.05ZM144.95 61.6C144.75 61.8333 144.2 62.0833 143.3 62.35C141.8 62.7833 139.85 63.5833 137.45 64.75H133.4L137.45 61.6L142.95 61.2C143.983 61.1667 144.65 61.3 144.95 61.6ZM180.15 87.05C181.117 86.15 182.433 85.55 184.1 85.25L184.35 86.25C182.783 88.25 181.7 89.3333 181.1 89.5L178.85 89.4C178.917 88.5667 179.35 87.7833 180.15 87.05ZM219.2 100.15L219.25 100.45L219.45 101.35V101.5L219.55 102L219.75 104.15L218.7 105.1L216.25 106.55C215.317 107.217 214.517 107.95 213.85 108.75L213.9 107.2V106.15L213.8 102.25C215.167 101.583 216.967 100.883 219.2 100.15ZM196.85 119.8L194.15 122.9C192.883 124.033 191.867 124.6 191.1 124.6L188.15 124.4L188 124.2L187.05 123.95C187.75 122.95 189.133 121.967 191.2 121C193.433 119.933 195.317 119.533 196.85 119.8ZM207.45 147.9L207.15 149.2L206.2 153.15C204.833 158.817 203.967 162.783 203.6 165.05L203.55 165.25L203.05 167.4L202.85 168.1L201.05 173.5C200.083 175.133 198.867 176.85 197.4 178.65C194.633 182.017 191.217 185.35 187.15 188.65C192.783 182.317 197.35 175.233 200.85 167.4C202.083 164.6 203.183 161.7 204.15 158.7L207.45 147.9ZM83.85 23.15L85.75 25.3L89.15 30.3L87 32.45C86.8 31.45 86.3833 30.4833 85.75 29.55L82.2 24.4L83.85 23.15ZM76.1 55.45L75.55 58.35C74.15 57.2167 71.8833 56.7667 68.75 57L68.3 55.35L68.4 55.1L76.1 55.45ZM92.25 57.15C94.7833 53.3167 96.9 50.8667 98.6 49.8C97.6 52.1333 95.8667 55 93.4 58.4C91.1 61.6333 88.8333 64.4 86.6 66.7L86.15 66.25L92.25 57.15ZM79.85 85.45L80.85 87.5L81.9 89.35L81.05 89.3C79.7833 89.3 77.9833 89.65 75.65 90.35L74.8 88.35L74.45 87.7C76.05 86.8333 77.85 86.0833 79.85 85.45ZM154.65 209.35L154.9 209.25L156.55 208.5L154.4 212.7C151.133 218.6 147.467 223.55 143.4 227.55L154.25 209.55L154.65 209.35ZM199.6 176.65L200.4 175.5L200.1 176.25L199.7 177.1V177.35L196.15 187.65L193.95 194.3C192.317 199.4 191.15 203.6 190.45 206.9L189.55 208L189.5 207.95V208.05L189.35 208.35L188.5 210.85C186.533 214.317 183.05 218.017 178.05 221.95L175.05 224.25L175 224.3L174.2 224.85L158.9 234.3L157.4 235.1L156.55 235.55L151.65 238.15L158.4 231.65L161.25 228.95L168.4 221.95C175.167 215.15 179.933 209.85 182.7 206.05C184.233 203.983 186.933 200.567 190.8 195.8C194.067 191.467 196.033 187.833 196.7 184.9C197.4 182 198.367 179.25 199.6 176.65ZM125.65 233.55C125.05 234.117 123.983 234.7 122.45 235.3L121.95 234.7C121.85 234.433 121.8 233.817 121.8 232.85C121.8 231.883 122.483 231.217 123.85 230.85L126.75 230.7C126.917 231.833 126.55 232.783 125.65 233.55ZM102.65 239.8C102.65 237.333 104.267 235.833 107.5 235.3L109.05 235.55C109.383 235.65 109.55 236.167 109.55 237.1C109.55 237.9 108.917 238.933 107.65 240.2C106.417 241.433 105.433 242.05 104.7 242.05L103.1 241.7C102.8 241.467 102.65 240.833 102.65 239.8ZM181.55 246.3L183.9 241.05L184.4 239.9V240.5V241.05C184.4 246.017 184.5 249.333 184.7 251C185.233 255.5 186.55 259.417 188.65 262.75L189.55 264.05L189.9 264.6L190.05 265L191.4 268.9V268.95C186.7 271.45 182.283 272.65 178.15 272.55L164.05 272.45C160.817 272.283 157.617 271.567 154.45 270.3L155.9 269.75C160 268.183 163.867 266.167 167.5 263.7C175.3 258.4 179.983 252.6 181.55 246.3ZM217.25 138.95L216.65 139.6L216.05 140.1L215.75 140.35L215.6 140.4L215.5 140.45C214.733 140.883 213.533 141.233 211.9 141.5L210.75 141.75L210.8 141.6V141.4L210.85 141.2L211.1 139.45L211.15 139.2V139.1L211.3 139.05L216.2 138.7V139L217.25 138.95ZM210.85 170.5L210.6 171.25L209.95 173.3L207.85 172.55L205.25 171.95L203.75 172.15L205.15 168.2L207.85 169.1L210.85 170.5ZM143.05 193C140.283 194.9 138.267 196.1 137 196.6C137.533 194.533 139.083 192.633 141.65 190.9C144.183 189.167 146.267 188.567 147.9 189.1L143.05 193ZM193.9 204.1L194.65 200.95L196.15 195.75L198.35 197.9C200.483 199.667 201.55 200.683 201.55 200.95L201.2 203.1L200.9 204.75L198.75 204.3L195.85 203.8L193.9 204.1ZM190.65 227.95L191.8 228.95L194.5 231.5V234.8L191.2 235.55L188.85 236.65V235.55L189 228.95L189.05 227.1V226.9L190.65 227.95Z" fill="#353120"/>
<path fill-rule="evenodd" clip-rule="evenodd" d="M159.9 288.3C159.733 288.533 159.567 288.433 159.4 288L158.65 286.1L156.75 282.7C155.817 281.2 154.333 279.867 152.3 278.7L151.25 278.05L149 276.95C147.4 275.417 145.6 274.167 143.6 273.2C142.167 272.533 139.65 271.917 136.05 271.35L130.8 270.65L129.1 270.5L129.55 270.9L129.05 270.85C125.017 270.217 122.4 271.633 121.2 275.1L120.5 278.05L120.4 278.8C119.8 279.867 119.433 281.45 119.3 283.55L119 284.4C116.967 290.433 115.567 294.25 114.8 295.85L114.75 296L113.6 298.6L113 300.15L111.6 303.8L109.7 307.45C107.567 311.45 106.267 314.7 105.8 317.2L105.75 317.45L105.15 320.25L105.4 320.35L105.65 319.8C105.717 321.733 106.117 323.917 106.85 326.35V326.4L106.9 329.2C106.967 331.567 107.117 333.783 107.35 335.85C107.783 339.817 108.55 343.117 109.65 345.75C110.917 348.883 113.983 354 118.85 361.1L120.2 363.05L123.2 367.3L125.45 370.4C128.083 373.9 130.767 377.133 133.5 380.1H117.85L114.15 375.2L115.5 373.9L115.05 372.55L112.7 371.95C110.167 360.383 108.067 348.5 106.4 336.3H105.6C105.4 337.933 105.3 340.733 105.3 344.7C105.3 346.867 105.867 350.55 107 355.75L105.55 353.85L107.15 356.4C108.083 360.5 109.383 365.533 111.05 371.5L89.75 366.05C91.65 367.117 95.5 368.933 101.3 371.5C107.533 374.233 111.133 375.6 112.1 375.6H112.2L113.5 380.1H79.85C78.1833 376.8 76.6833 373.4 75.35 369.9C68.8833 353 65.65 332.067 65.65 307.1C65.65 306.533 66.1667 304.217 67.2 300.15L67.8 297.8L70 289.15V288.5L75.05 278.95L76.3 278.05C79.0667 276.15 81.95 274.317 84.95 272.55C83.95 273.25 82.9 274.15 81.8 275.25L81.45 275.5C84.7167 273.5 88.3333 272.15 92.3 271.45L96.9 269.85L97 270.5L99 270.6L99.9 270.65C100.167 270.517 100.3 270.867 100.3 271.7L99.6 273.05L99.65 273.25L100.1 273.6L99.35 276.75L98.95 278.05L98.9 278.35V278.25H98.1L96.05 293.45L95.15 300.15C94.75 303.517 94.55 306.417 94.55 308.85C94.55 320.217 95 328 95.9 332.2L96.8 335.55C98.2 340.283 100.533 345.433 103.8 351C101.567 346.867 99.75 341.35 98.35 334.45V334.3C96.55 325.733 95.65 317.25 95.65 308.85C95.65 306.617 95.8667 303.717 96.3 300.15L97.25 293.45L97.8 289.7H98C98 288.967 98.6333 285.967 99.9 280.7L100.5 278.05L101.75 271.75L102.1 271.05C103 269.717 104.333 268.817 106.1 268.35L106.2 268L105.6 267.8L109.45 267.2L116.7 266.45L118.05 266.05L119.9 266.2L121.35 266.15L124.95 266.35L124.55 266.65L124.75 266.75L127.4 267.15L127.7 267.2L131.3 267.8L132 268.2L134.5 268.45C135.733 268.65 136.917 268.967 138.05 269.4L140.35 270.1L141.35 270.05L145.55 271.55C148.55 272.683 151.4 273.867 154.1 275.1L155.35 275.8C159.65 278.4 161.833 280.15 161.9 281.05L160.8 283.65L160.9 284.35C161.067 285.583 160.933 286.133 160.5 286L160 288.15L159.9 288.3ZM77.9 380.1H43.55C40.0167 367.033 38.05 354.767 37.65 343.3C37.85 340.267 38.2167 337.417 38.75 334.75L39.2 333.3L40.85 327.9L40.8 327.15L44.2 316.7L46 313.05C48.6 308.217 51.2167 303.917 53.85 300.15L55.5 297.85C59.3 292.883 63.7 288.267 68.7 284L69.95 284.1L69.8 285.55L69.6 286.45L67.65 292.75V292.8L64.85 299.25L64.75 300.15L64.55 307.45C64.55 320.283 65.0167 330.8 65.95 339C67.2833 350.567 69.7833 361 73.45 370.3C74.75 373.633 76.2333 376.9 77.9 380.1ZM41.85 380.1H25.05L25.25 368.8C26.5167 363.767 27.8167 359.15 29.15 354.95L30.2 351.8C32.4333 345.233 35.1667 337.883 38.4 329.75L37.65 333.05C36.8833 335.25 36.5 337.1 36.5 338.6V340.85L36.4 343.65C36.4 345.117 36.5167 346.283 36.75 347.15C37.35 357.883 39.05 368.867 41.85 380.1ZM86.35 325.75C86.2167 326.05 86.9 326.2 88.4 326.2C89.3667 326.2 90.0167 326.067 90.35 325.8L90.95 324.85L90.5 323.5L87.35 323.25L86.15 323.3C85.9833 322.767 85.9 323.25 85.9 324.75C85.9 325.683 85.9833 326.133 86.15 326.1L86.35 325.75ZM82.1 310.8C83.3333 310.333 84.25 309.683 84.85 308.85C85.25 308.283 85.45 307.733 85.45 307.2C85.45 306.267 85.3833 305.817 85.25 305.85L85 306.2C84.1333 306.233 82.9333 306.717 81.4 307.65C80.1667 308.383 79.3 309.017 78.8 309.55C79.1333 309.883 79.7833 310.2 80.75 310.5L82.1 310.8Z" fill="#775D2B"/>
<path fill-rule="evenodd" clip-rule="evenodd" d="M18.3 380.1H2.25C5.01667 374.533 8.16667 368.683 11.7 362.55L24.75 340.35L38.6 316.1L43.8 306.25L38.2 320.15C35.6667 326.717 33.0333 333.867 30.3 341.6L25.7 354.95C22.5667 364.35 20.1 372.733 18.3 380.1Z" fill="#852811"/>
<path fill-rule="evenodd" clip-rule="evenodd" d="M163.6 296.65L162.85 295.7L161.7 292.7L161.4 292.1C161.1 291.233 160.95 290.583 160.95 290.15L161.1 289C161.233 288.3 161.483 287.483 161.85 286.55L162.05 285.95L162.65 284.9L163.25 283.2L164.35 280.4L166.35 281.9L170.05 284.45C168.383 287.883 167.233 290.6 166.6 292.6C165.9 294.8 165.5 296.983 165.4 299.15L163.6 296.65ZM106.85 326.35L107.65 328.7L110.25 334.95C113.217 341.183 117.167 347.55 122.1 354.05L126.25 359.35C132.617 367.05 138.933 373.083 145.2 377.45L149.4 380.1H133.5C130.767 377.133 128.083 373.9 125.45 370.4L123.2 367.3L120.2 363.05L118.85 361.1C113.983 354 110.917 348.883 109.65 345.75C108.55 343.117 107.783 339.817 107.35 335.85C107.117 333.783 106.967 331.567 106.9 329.2L106.85 326.4V326.35ZM82.1 310.8L80.75 310.5C79.7833 310.2 79.1333 309.883 78.8 309.55C79.3 309.017 80.1667 308.383 81.4 307.65C82.9333 306.717 84.1333 306.233 85 306.2L85.25 305.85C85.3833 305.817 85.45 306.267 85.45 307.2C85.45 307.733 85.25 308.283 84.85 308.85C84.25 309.683 83.3333 310.333 82.1 310.8ZM86.35 325.75L86.15 326.1C85.9833 326.133 85.9 325.683 85.9 324.75C85.9 323.25 85.9833 322.767 86.15 323.3L87.35 323.25L90.5 323.5L90.95 324.85L90.35 325.8C90.0167 326.067 89.3667 326.2 88.4 326.2C86.9 326.2 86.2167 326.05 86.35 325.75ZM112.7 371.95L115.05 372.55L115.5 373.9L114.15 375.2L113.2 373.9L114.1 375.2L113.45 375.45L112.7 371.95ZM112.2 375.6H112.1C111.133 375.6 107.533 374.233 101.3 371.5C95.5 368.933 91.65 367.117 89.75 366.05L111.05 371.5L112.2 375.6Z" fill="#55420F"/>
<path fill-rule="evenodd" clip-rule="evenodd" d="M171.85 201.45L172 201.7L171.5 201.95L171.85 201.45Z" fill="#000004"/>
<path fill-rule="evenodd" clip-rule="evenodd" d="M117.45 380.1H114.55L113.45 375.45L114.1 375.2L117.45 380.1Z" fill="url(#paint0_linear_1_150)"/>
</g>
<defs>
<linearGradient id="paint0_linear_1_150" x1="538.223" y1="464.137" x2="537.001" y2="601.762" gradientUnits="userSpaceOnUse">
<stop stop-color="#775D2B"/>
<stop offset="1" stop-color="#55420F"/>
</linearGradient>
<clipPath id="clip0_1_150">
<rect width="933.9" height="448.55" fill="white"/>
</clipPath>
</defs>
</svg>
